<svg id="Capa_1" enable-background="new 0 0 512 512" height="512" viewBox="0 0 512 512" width="512" xmlns="http://www.w3.org/2000/svg"><path style="fill:#FFFFFF;" d="m450.519 3.887c-6.459-4.339-14.456-4.984-21.303-2.186l-34.498 14.07c-19.187 7.83-40.142 7.899-59.011.199-23.25-9.48-50.813-14.497-79.707-14.497-28.904 0-56.467 5.018-79.717 14.507-18.889 7.7-39.854 7.631-59.05-.209l-34.439-14.06c-14.98-6.115-31.388 4.917-31.388 21.084v120.148c0 16.177 16.435 27.191 31.378 21.084l34.498-14.07c19.187-7.82 40.142-7.889 59.011-.199 8.197 3.339 16.921 6.131 26.052 8.336v121.002c0 19.177 15.6 34.776 34.776 34.776h13.136l16.135 26.472c.834 1.367.571 3.132-.627 4.197l-30.136 26.79c-14.815 13.169-14.805 36.345 0 49.505l26.189 23.279c1.486 1.32 1.487 3.628 0 4.949l-41.504 36.892c-6.152 5.469-6.706 14.889-1.237 21.041s14.89 6.706 21.041 1.237l41.504-36.892c14.815-13.171 14.805-36.344 0-49.506l-26.189-23.279c-1.481-1.317-1.492-3.621 0-4.948l30.136-26.79c11.977-10.647 14.616-28.307 6.276-41.99l-7.479-12.269c14.576-4.143 25.287-17.577 25.287-33.465v-120.999c9.141-2.206 17.865-4.998 26.062-8.336 18.889-7.7 39.854-7.631 59.05.199l34.439 14.07c14.972 6.112 31.388-4.923 31.388-21.084v-120.15c.002-7.601-3.763-14.665-10.073-18.908zm-170.672 275.21c0 2.732-2.236 4.968-4.968 4.968h-37.757c-2.732 0-4.968-2.236-4.968-4.968v-116.004c15.093 1.519 31.616 1.605 47.693.01zm150.939-146.627-24.751-10.105c-26.46-10.801-55.434-10.88-81.585-.199-40.206 16.371-96.367 16.469-136.9 0-12.986-5.296-26.668-7.949-40.39-7.949-25.35 0-40.469 7.866-65.946 18.263v-99.212l24.751 10.105c26.46 10.801 55.434 10.87 81.585.199 40.196-16.399 96.622-16.424 136.9 0 26.132 10.661 55.086 10.592 81.526-.199l24.81-10.115z"/></svg>
